<svg width="20" height="20" viewBox="0 0 20 20" fill="none" xmlns="http://www.w3.org/2000/svg">
<path fill-rule="evenodd" clip-rule="evenodd" d="M10 19.6C15.3019 19.6 19.6 15.302 19.6 10C19.6 4.69809 15.3019 0.400024 10 0.400024C4.69809 0.400024 0.400024 4.69809 0.400024 10C0.400024 15.302 4.69809 19.6 10 19.6ZM11.2 6.40002C11.2 5.73728 10.6628 5.20002 10 5.20002C9.33728 5.20002 8.80002 5.73728 8.80002 6.40002V8.80002H6.40002C5.73728 8.80002 5.20002 9.33728 5.20002 10C5.20002 10.6628 5.73728 11.2 6.40002 11.2H8.80002V13.6C8.80002 14.2628 9.33728 14.8 10 14.8C10.6628 14.8 11.2 14.2628 11.2 13.6V11.2H13.6C14.2628 11.2 14.8 10.6628 14.8 10C14.8 9.33728 14.2628 8.80002 13.6 8.80002H11.2V6.40002Z" fill="#6B7280"/>
</svg>
